<svg height="698.0" width="1055.0" xmlns="http://www.w3.org/2000/svg"><desc>{"leftTopX": 3386, "leftTopY": 4347, "rightBottomX": 4441, "rightBottomY": 5005}</desc><g transform="translate(0.5,0.5)"><g class="reference"><polyline fill="none" points="462.0,429.0 662.0,429.0" stroke="#000000" stroke-linejoin="miter"/><g class="cardinality"><line stroke="#000000" stroke-width="1.0" x1="569.0" x2="584.0" y1="429.0" y2="423.0"/><line stroke="#000000" stroke-width="1.0" x1="569.0" x2="584.0" y1="429.0" y2="435.0"/><g transform="translate(569.0,429.0)"><circle fill="white" r="3.5" stroke="#000000" stroke-width="1.0"/></g></g><g class="mandatory"><line stroke="#000000" stroke-width="1.0" x1="503.0" x2="503.0" y1="423.0" y2="435.0"/></g></g><g class="reference"><polyline fill="none" points="439.0,589.0 161.0,589.0" stroke="#000000" stroke-linejoin="miter"/><g class="cardinality"><line stroke="#000000" stroke-width="1.0" x1="255.0" x2="240.0" y1="589.0" y2="583.0"/><line stroke="#000000" stroke-width="1.0" x1="255.0" x2="240.0" y1="589.0" y2="595.0"/><g transform="translate(255.0,589.0)"><circle fill="white" r="3.5" stroke="#000000" stroke-width="1.0"/></g></g><g class="mandatory"><line stroke="#000000" stroke-width="1.0" x1="312.0" x2="312.0" y1="583.0" y2="595.0"/></g></g><g class="reference"><polyline fill="none" points="393.0,438.0 393.0,524.0 394.0,524.0 394.0,585.0" stroke="#000000" stroke-linejoin="miter"/><g class="cardinality"><line stroke="#000000" stroke-width="1.0" x1="394.0" x2="388.0" y1="524.0" y2="539.0"/><line stroke="#000000" stroke-width="1.0" x1="394.0" x2="400.0" y1="524.0" y2="539.0"/><g transform="translate(394.0,524.0)"><circle fill="white" r="3.5" stroke="#000000" stroke-width="1.0"/></g></g><g class="mandatory"><line stroke="#000000" stroke-width="1.0" x1="387.0" x2="399.0" y1="508.0" y2="508.0"/></g></g><g class="reference"><polyline fill="none" points="1028.0,92.0 1028.0,83.0 942.0,83.0 942.0,213.0" stroke="#000000" stroke-linejoin="miter"/><g class="cardinality"><line stroke="#000000" stroke-width="1.0" x1="942.0" x2="936.0" y1="176.0" y2="191.0"/><line stroke="#000000" stroke-width="1.0" x1="942.0" x2="948.0" y1="176.0" y2="191.0"/><g transform="translate(942.0,176.0)"><circle fill="white" r="3.5" stroke="#000000" stroke-width="1.0"/></g></g><g class="mandatory"><line stroke="#000000" stroke-width="1.0" x1="936.0" x2="948.0" y1="137.0" y2="137.0"/></g></g><g class="reference"><polyline fill="none" points="925.0,240.0 925.0,231.0 943.0,231.0 943.0,361.0" stroke="#000000" stroke-linejoin="miter"/><g class="cardinality"><line stroke="#000000" stroke-width="1.0" x1="943.0" x2="937.0" y1="313.0" y2="328.0"/><line stroke="#000000" stroke-width="1.0" x1="943.0" x2="949.0" y1="313.0" y2="328.0"/><g transform="translate(943.0,313.0)"><circle fill="white" r="3.5" stroke="#000000" stroke-width="1.0"/></g></g><g class="mandatory"><line stroke="#000000" stroke-width="1.0" x1="937.0" x2="949.0" y1="293.0" y2="293.0"/></g></g><g class="reference"><polyline fill="none" points="949.0,394.0 949.0,570.0 953.0,570.0 953.0,506.0" stroke="#000000" stroke-linejoin="miter"/><g class="cardinality"><line stroke="#000000" stroke-width="1.0" x1="949.0" x2="943.0" y1="479.0" y2="494.0"/><line stroke="#000000" stroke-width="1.0" x1="949.0" x2="955.0" y1="479.0" y2="494.0"/><g transform="translate(949.0,479.0)"><circle fill="white" r="3.5" stroke="#000000" stroke-width="1.0"/></g></g><g class="mandatory"><line stroke="#000000" stroke-width="1.0" x1="943.0" x2="955.0" y1="451.0" y2="451.0"/></g></g><g class="reference"><polyline fill="none" points="136.0,408.0 136.0,340.0 20.0,340.0 20.0,425.0 200.0,425.0" stroke="#000000" stroke-linejoin="miter"/><g class="cardinality"><line stroke="#000000" stroke-width="1.0" x1="37.0" x2="52.0" y1="425.0" y2="419.0"/><line stroke="#000000" stroke-width="1.0" x1="37.0" x2="52.0" y1="425.0" y2="431.0"/><g transform="translate(37.0,425.0)"><circle fill="white" r="3.5" stroke="#000000" stroke-width="1.0"/></g></g><g class="mandatory"><g transform="translate(136.0,355.0)"><circle fill="white" r="3.5" stroke="#000000" stroke-width="1.0"/></g></g></g><g class="reference"><polyline fill="none" points="147.0,462.0 147.0,428.0 308.0,428.0" stroke="#000000" stroke-linejoin="miter"/><g class="cardinality"><line stroke="#000000" stroke-width="1.0" x1="283.0" x2="298.0" y1="428.0" y2="422.0"/><line stroke="#000000" stroke-width="1.0" x1="283.0" x2="298.0" y1="428.0" y2="434.0"/><g transform="translate(283.0,428.0)"><circle fill="white" r="3.5" stroke="#000000" stroke-width="1.0"/></g></g><g class="mandatory"><line stroke="#000000" stroke-width="1.0" x1="250.0" x2="250.0" y1="422.0" y2="434.0"/></g></g><g class="reference"><polyline fill="none" points="397.0,397.0 397.0,311.0 395.0,311.0 395.0,254.0" stroke="#000000" stroke-linejoin="miter"/><g class="cardinality"><line stroke="#000000" stroke-width="1.0" x1="397.0" x2="391.0" y1="343.0" y2="328.0"/><line stroke="#000000" stroke-width="1.0" x1="397.0" x2="403.0" y1="343.0" y2="328.0"/><g transform="translate(397.0,343.0)"><circle fill="white" r="3.5" stroke="#000000" stroke-width="1.0"/></g></g><g class="mandatory"><line stroke="#000000" stroke-width="1.0" x1="391.0" x2="403.0" y1="362.0" y2="362.0"/></g></g><g class="reference"><polyline fill="none" points="675.0,76.0 675.0,168.0 645.0,168.0 645.0,221.0" stroke="#000000" stroke-linejoin="miter"/><g class="cardinality"><line stroke="#000000" stroke-width="1.0" x1="675.0" x2="669.0" y1="146.0" y2="161.0"/><line stroke="#000000" stroke-width="1.0" x1="675.0" x2="681.0" y1="146.0" y2="161.0"/><g transform="translate(675.0,146.0)"><circle fill="white" r="3.5" stroke="#000000" stroke-width="1.0"/></g></g><g class="mandatory"><g transform="translate(675.0,118.0)"><circle fill="white" r="3.5" stroke="#000000" stroke-width="1.0"/></g></g></g><g class="reference"><polyline fill="none" points="470.0,232.0 585.0,232.0" stroke="#000000" stroke-linejoin="miter"/><g class="cardinality"><line stroke="#000000" stroke-width="1.0" x1="527.0" x2="542.0" y1="232.0" y2="226.0"/><line stroke="#000000" stroke-width="1.0" x1="527.0" x2="542.0" y1="232.0" y2="238.0"/><g transform="translate(527.0,232.0)"><circle fill="white" r="3.5" stroke="#000000" stroke-width="1.0"/></g></g><g class="mandatory"><g transform="translate(502.0,232.0)"><circle fill="white" r="3.5" stroke="#000000" stroke-width="1.0"/></g></g></g><g class="reference"><polyline fill="none" points="666.0,410.0 666.0,281.0" stroke="#000000" stroke-linejoin="miter"/><g class="cardinality"><line stroke="#000000" stroke-width="1.0" x1="666.0" x2="660.0" y1="350.0" y2="335.0"/><line stroke="#000000" stroke-width="1.0" x1="666.0" x2="672.0" y1="350.0" y2="335.0"/><g transform="translate(666.0,350.0)"><circle fill="white" r="3.5" stroke="#000000" stroke-width="1.0"/></g></g><g class="mandatory"><g transform="translate(666.0,364.0)"><circle fill="white" r="3.5" stroke="#000000" stroke-width="1.0"/></g></g></g><g class="table" transform="translate(298.0,377.0)"><g transform="translate(0.0,0.0)"><rect fill="#f0f0f0" height="20.0" width="190.0"/></g><g transform="translate(0.0,0.0)"><text fill="black" font-family="arial, sans-serif" font-size="12" font-weight="700" text-anchor="middle" x="96.0" y="14.1888671875">page</text></g><g transform="translate(0.0,20.0)"><rect fill="#ffffff" height="96.0" width="190.0"/><g transform="translate(4.0,3.0)"><g transform="translate(0.0,0.0)"><text fill="black" font-family="arial, sans-serif" font-size="12" font-weight="400" x="1.0" y="11.40234375">id</text></g><g transform="translate(0.0,14.0)"><text fill="black" font-family="arial, sans-serif" font-size="12" font-weight="400" x="1.0" y="11.40234375">name</text></g><g transform="translate(0.0,28.0)"><text fill="black" font-family="arial, sans-serif" font-size="12" font-weight="400" x="1.0" y="11.40234375">name_clean</text></g><g transform="translate(0.0,42.0)"><text fill="black" font-family="arial, sans-serif" font-size="12" font-weight="400" x="1.0" y="11.40234375">menu_id</text></g><g transform="translate(0.0,56.0)"><text fill="black" font-family="arial, sans-serif" font-size="12" font-weight="400" x="1.0" y="11.40234375">enabled</text></g></g><g transform="translate(94.0,3.0)"><g transform="translate(0.0,0.0)"><text fill="black" font-family="arial, sans-serif" font-size="12" font-weight="400" x="1.0" y="11.40234375">int</text></g><g transform="translate(0.0,14.0)"><text fill="black" font-family="arial, sans-serif" font-size="12" font-weight="400" x="1.0" y="11.40234375">varchar(100)</text></g><g transform="translate(0.0,28.0)"><text fill="black" font-family="arial, sans-serif" font-size="12" font-weight="400" x="1.0" y="11.40234375">varchar(50)</text></g><g transform="translate(0.0,42.0)"><text fill="black" font-family="arial, sans-serif" font-size="12" font-weight="400" x="1.0" y="11.40234375">int</text></g><g transform="translate(0.0,56.0)"><text fill="black" font-family="arial, sans-serif" font-size="12" font-weight="400" x="1.0" y="11.40234375">tinyint(1)</text></g></g><g transform="translate(171.5,3.0)"><g transform="translate(0.0,0.0)"><text fill="black" font-family="arial, sans-serif" font-size="12" font-weight="400" x="1.0" y="11.40234375">PK</text></g><g transform="translate(0.0,14.0)"><text fill="black" font-family="arial, sans-serif" font-size="12" font-weight="400" x="1.0" y="11.40234375"/></g><g transform="translate(0.0,28.0)"><text fill="black" font-family="arial, sans-serif" font-size="12" font-weight="400" x="1.0" y="11.40234375">N</text></g><g transform="translate(0.0,42.0)"><text fill="black" font-family="arial, sans-serif" font-size="12" font-weight="400" x="1.0" y="11.40234375">FK</text></g><g transform="translate(0.0,56.0)"><text fill="black" font-family="arial, sans-serif" font-size="12" font-weight="400" x="1.0" y="11.40234375"/></g></g></g><polyline fill="none" points="0.0,20.0 0.0,0.0 190.0,0.0 190.0,20.0 0.0,20.0 0.0,116.0 190.0,116.0 190.0,20.0" stroke="#000000" stroke-linejoin="miter"/></g><g class="table" transform="translate(584.0,379.0)"><g transform="translate(0.0,0.0)"><rect fill="#f0f0f0" height="20.0" width="160.0"/></g><g transform="translate(0.0,0.0)"><text fill="black" font-family="arial, sans-serif" font-size="12" font-weight="700" text-anchor="middle" x="81.0" y="14.1888671875">page_details</text></g><g transform="translate(0.0,20.0)"><rect fill="#ffffff" height="82.0" width="160.0"/><g transform="translate(4.0,3.0)"><g transform="translate(0.0,0.0)"><text fill="black" font-family="arial, sans-serif" font-size="12" font-weight="400" x="1.0" y="11.40234375">id</text></g><g transform="translate(0.0,14.0)"><text fill="black" font-family="arial, sans-serif" font-size="12" font-weight="400" x="1.0" y="11.40234375">descriptio</text></g><g transform="translate(0.0,28.0)"><text fill="black" font-family="arial, sans-serif" font-size="12" font-weight="400" x="1.0" y="11.40234375">value</text></g><g transform="translate(0.0,42.0)"><text fill="black" font-family="arial, sans-serif" font-size="12" font-weight="400" x="1.0" y="11.40234375">enabled</text></g><g transform="translate(0.0,56.0)"><text fill="black" font-family="arial, sans-serif" font-size="12" font-weight="400" x="1.0" y="11.40234375">page_id</text></g></g><g transform="translate(71.5,3.0)"><g transform="translate(0.0,0.0)"><text fill="black" font-family="arial, sans-serif" font-size="12" font-weight="400" x="1.0" y="11.40234375">int</text></g><g transform="translate(0.0,14.0)"><text fill="black" font-family="arial, sans-serif" font-size="12" font-weight="400" x="1.0" y="11.40234375">varchar(45)</text></g><g transform="translate(0.0,28.0)"><text fill="black" font-family="arial, sans-serif" font-size="12" font-weight="400" x="1.0" y="11.40234375">text</text></g><g transform="translate(0.0,42.0)"><text fill="black" font-family="arial, sans-serif" font-size="12" font-weight="400" x="1.0" y="11.40234375">tinyint(1)</text></g><g transform="translate(0.0,56.0)"><text fill="black" font-family="arial, sans-serif" font-size="12" font-weight="400" x="1.0" y="11.40234375">int</text></g></g><g transform="translate(141.5,3.0)"><g transform="translate(0.0,0.0)"><text fill="black" font-family="arial, sans-serif" font-size="12" font-weight="400" x="1.0" y="11.40234375">PK</text></g><g transform="translate(0.0,14.0)"><text fill="black" font-family="arial, sans-serif" font-size="12" font-weight="400" x="1.0" y="11.40234375"/></g><g transform="translate(0.0,28.0)"><text fill="black" font-family="arial, sans-serif" font-size="12" font-weight="400" x="1.0" y="11.40234375">N</text></g><g transform="translate(0.0,42.0)"><text fill="black" font-family="arial, sans-serif" font-size="12" font-weight="400" x="1.0" y="11.40234375">N</text></g><g transform="translate(0.0,56.0)"><text fill="black" font-family="arial, sans-serif" font-size="12" font-weight="400" x="1.0" y="11.40234375">FK</text></g></g></g><polyline fill="none" points="0.0,20.0 0.0,0.0 160.0,0.0 160.0,20.0 0.0,20.0 0.0,102.0 160.0,102.0 160.0,20.0" stroke="#000000" stroke-linejoin="miter"/></g><g class="table" transform="translate(308.0,154.0)"><g transform="translate(0.0,0.0)"><rect fill="#f0f0f0" height="20.0" width="179.0"/></g><g transform="translate(0.0,0.0)"><text fill="black" font-family="arial, sans-serif" font-size="12" font-weight="700" text-anchor="middle" x="90.5" y="14.1888671875">banner</text></g><g transform="translate(0.0,20.0)"><rect fill="#ffffff" height="154.0" width="179.0"/><g transform="translate(4.0,3.0)"><g transform="translate(0.0,0.0)"><text fill="black" font-family="arial, sans-serif" font-size="12" font-weight="400" x="1.0" y="11.40234375">id</text></g><g transform="translate(0.0,14.0)"><text fill="black" font-family="arial, sans-serif" font-size="12" font-weight="400" x="1.0" y="11.40234375">name_clean</text></g><g transform="translate(0.0,28.0)"><text fill="black" font-family="arial, sans-serif" font-size="12" font-weight="400" x="1.0" y="11.40234375">description</text></g><g transform="translate(0.0,42.0)"><text fill="black" font-family="arial, sans-serif" font-size="12" font-weight="400" x="1.0" y="11.40234375">url</text></g><g transform="translate(0.0,56.0)"><text fill="black" font-family="arial, sans-serif" font-size="12" font-weight="400" x="1.0" y="11.40234375">position</text></g><g transform="translate(0.0,70.0)"><text fill="black" font-family="arial, sans-serif" font-size="12" font-weight="400" x="1.0" y="11.40234375">date_created</text></g><g transform="translate(0.0,84.0)"><text fill="black" font-family="arial, sans-serif" font-size="12" font-weight="400" x="1.0" y="11.40234375">page_id</text></g><g transform="translate(0.0,98.0)"><text fill="black" font-family="arial, sans-serif" font-size="12" font-weight="400" x="1.0" y="11.40234375">interval_init</text></g><g transform="translate(0.0,112.0)"><text fill="black" font-family="arial, sans-serif" font-size="12" font-weight="400" x="1.0" y="11.40234375">interlval_end</text></g></g><g transform="translate(83.0,3.0)"><g transform="translate(0.0,0.0)"><text fill="black" font-family="arial, sans-serif" font-size="12" font-weight="400" x="1.0" y="11.40234375">int</text></g><g transform="translate(0.0,14.0)"><text fill="black" font-family="arial, sans-serif" font-size="12" font-weight="400" x="1.0" y="11.40234375">varchar(50)</text></g><g transform="translate(0.0,28.0)"><text fill="black" font-family="arial, sans-serif" font-size="12" font-weight="400" x="1.0" y="11.40234375">varchar(100)</text></g><g transform="translate(0.0,42.0)"><text fill="black" font-family="arial, sans-serif" font-size="12" font-weight="400" x="1.0" y="11.40234375">varchar(255)</text></g><g transform="translate(0.0,56.0)"><text fill="black" font-family="arial, sans-serif" font-size="12" font-weight="400" x="1.0" y="11.40234375">varchar(20)</text></g><g transform="translate(0.0,70.0)"><text fill="black" font-family="arial, sans-serif" font-size="12" font-weight="400" x="1.0" y="11.40234375">timestamp</text></g><g transform="translate(0.0,84.0)"><text fill="black" font-family="arial, sans-serif" font-size="12" font-weight="400" x="1.0" y="11.40234375">int</text></g><g transform="translate(0.0,98.0)"><text fill="black" font-family="arial, sans-serif" font-size="12" font-weight="400" x="1.0" y="11.40234375">timestamp</text></g><g transform="translate(0.0,112.0)"><text fill="black" font-family="arial, sans-serif" font-size="12" font-weight="400" x="1.0" y="11.40234375">timestamp</text></g></g><g transform="translate(160.5,3.0)"><g transform="translate(0.0,0.0)"><text fill="black" font-family="arial, sans-serif" font-size="12" font-weight="400" x="1.0" y="11.40234375">PK</text></g><g transform="translate(0.0,14.0)"><text fill="black" font-family="arial, sans-serif" font-size="12" font-weight="400" x="1.0" y="11.40234375"/></g><g transform="translate(0.0,28.0)"><text fill="black" font-family="arial, sans-serif" font-size="12" font-weight="400" x="1.0" y="11.40234375"/></g><g transform="translate(0.0,42.0)"><text fill="black" font-family="arial, sans-serif" font-size="12" font-weight="400" x="1.0" y="11.40234375"/></g><g transform="translate(0.0,56.0)"><text fill="black" font-family="arial, sans-serif" font-size="12" font-weight="400" x="1.0" y="11.40234375">N</text></g><g transform="translate(0.0,70.0)"><text fill="black" font-family="arial, sans-serif" font-size="12" font-weight="400" x="1.0" y="11.40234375"/></g><g transform="translate(0.0,84.0)"><text fill="black" font-family="arial, sans-serif" font-size="12" font-weight="400" x="1.0" y="11.40234375">FK</text></g><g transform="translate(0.0,98.0)"><text fill="black" font-family="arial, sans-serif" font-size="12" font-weight="400" x="1.0" y="11.40234375">N</text></g><g transform="translate(0.0,112.0)"><text fill="black" font-family="arial, sans-serif" font-size="12" font-weight="400" x="1.0" y="11.40234375">N</text></g></g></g><polyline fill="none" points="0.0,20.0 0.0,0.0 179.0,0.0 179.0,20.0 0.0,20.0 0.0,174.0 179.0,174.0 179.0,20.0" stroke="#000000" stroke-linejoin="miter"/></g><g class="table" transform="translate(327.0,536.0)"><g transform="translate(0.0,0.0)"><rect fill="#f0f0f0" height="20.0" width="154.0"/></g><g transform="translate(0.0,0.0)"><text fill="black" font-family="arial, sans-serif" font-size="12" font-weight="700" text-anchor="middle" x="78.0" y="14.1888671875">tag</text></g><g transform="translate(0.0,20.0)"><rect fill="#ffffff" height="82.0" width="154.0"/><g transform="translate(4.0,3.0)"><g transform="translate(0.0,0.0)"><text fill="black" font-family="arial, sans-serif" font-size="12" font-weight="400" x="1.0" y="11.40234375">id</text></g><g transform="translate(0.0,14.0)"><text fill="black" font-family="arial, sans-serif" font-size="12" font-weight="400" x="1.0" y="11.40234375">tag</text></g><g transform="translate(0.0,28.0)"><text fill="black" font-family="arial, sans-serif" font-size="12" font-weight="400" x="1.0" y="11.40234375">enabled</text></g><g transform="translate(0.0,42.0)"><text fill="black" font-family="arial, sans-serif" font-size="12" font-weight="400" x="1.0" y="11.40234375">page_id</text></g></g><g transform="translate(65.5,3.0)"><g transform="translate(0.0,0.0)"><text fill="black" font-family="arial, sans-serif" font-size="12" font-weight="400" x="1.0" y="11.40234375">int</text></g><g transform="translate(0.0,14.0)"><text fill="black" font-family="arial, sans-serif" font-size="12" font-weight="400" x="1.0" y="11.40234375">varchar(45)</text></g><g transform="translate(0.0,28.0)"><text fill="black" font-family="arial, sans-serif" font-size="12" font-weight="400" x="1.0" y="11.40234375">tinyint(1)</text></g><g transform="translate(0.0,42.0)"><text fill="black" font-family="arial, sans-serif" font-size="12" font-weight="400" x="1.0" y="11.40234375">int</text></g></g><g transform="translate(135.5,3.0)"><g transform="translate(0.0,0.0)"><text fill="black" font-family="arial, sans-serif" font-size="12" font-weight="400" x="1.0" y="11.40234375">PK</text></g><g transform="translate(0.0,14.0)"><text fill="black" font-family="arial, sans-serif" font-size="12" font-weight="400" x="1.0" y="11.40234375"/></g><g transform="translate(0.0,28.0)"><text fill="black" font-family="arial, sans-serif" font-size="12" font-weight="400" x="1.0" y="11.40234375"/></g><g transform="translate(0.0,42.0)"><text fill="black" font-family="arial, sans-serif" font-size="12" font-weight="400" x="1.0" y="11.40234375">FK</text></g></g></g><polyline fill="none" points="0.0,20.0 0.0,0.0 154.0,0.0 154.0,20.0 0.0,20.0 0.0,102.0 154.0,102.0 154.0,20.0" stroke="#000000" stroke-linejoin="miter"/></g><g class="table" transform="translate(99.0,544.0)"><g transform="translate(0.0,0.0)"><rect fill="#f0f0f0" height="20.0" width="141.0"/></g><g transform="translate(0.0,0.0)"><text fill="black" font-family="arial, sans-serif" font-size="12" font-weight="700" text-anchor="middle" x="71.5" y="14.1888671875">tag_values</text></g><g transform="translate(0.0,20.0)"><rect fill="#ffffff" height="67.0" width="141.0"/><g transform="translate(4.0,3.0)"><g transform="translate(0.0,0.0)"><text fill="black" font-family="arial, sans-serif" font-size="12" font-weight="400" x="1.0" y="11.40234375">id</text></g><g transform="translate(0.0,14.0)"><text fill="black" font-family="arial, sans-serif" font-size="12" font-weight="400" x="1.0" y="11.40234375">value</text></g><g transform="translate(0.0,28.0)"><text fill="black" font-family="arial, sans-serif" font-size="12" font-weight="400" x="1.0" y="11.40234375">tag_id</text></g></g><g transform="translate(45.0,3.0)"><g transform="translate(0.0,0.0)"><text fill="black" font-family="arial, sans-serif" font-size="12" font-weight="400" x="1.0" y="11.40234375">int</text></g><g transform="translate(0.0,14.0)"><text fill="black" font-family="arial, sans-serif" font-size="12" font-weight="400" x="1.0" y="11.40234375">varchar(255)</text></g><g transform="translate(0.0,28.0)"><text fill="black" font-family="arial, sans-serif" font-size="12" font-weight="400" x="1.0" y="11.40234375">int</text></g></g><g transform="translate(122.5,3.0)"><g transform="translate(0.0,0.0)"><text fill="black" font-family="arial, sans-serif" font-size="12" font-weight="400" x="1.0" y="11.40234375">PK</text></g><g transform="translate(0.0,14.0)"><text fill="black" font-family="arial, sans-serif" font-size="12" font-weight="400" x="1.0" y="11.40234375"/></g><g transform="translate(0.0,28.0)"><text fill="black" font-family="arial, sans-serif" font-size="12" font-weight="400" x="1.0" y="11.40234375">FK</text></g></g></g><polyline fill="none" points="0.0,20.0 0.0,0.0 141.0,0.0 141.0,20.0 0.0,20.0 0.0,87.0 141.0,87.0 141.0,20.0" stroke="#000000" stroke-linejoin="miter"/></g><g class="table" transform="translate(862.0,20.0)"><g transform="translate(0.0,0.0)"><rect fill="#f0f0f0" height="20.0" width="167.0"/></g><g transform="translate(0.0,0.0)"><text fill="black" font-family="arial, sans-serif" font-size="12" font-weight="700" text-anchor="middle" x="84.5" y="14.1888671875">tariff</text></g><g transform="translate(0.0,20.0)"><rect fill="#ffffff" height="82.0" width="167.0"/><g transform="translate(4.0,3.0)"><g transform="translate(0.0,0.0)"><text fill="black" font-family="arial, sans-serif" font-size="12" font-weight="400" x="1.0" y="11.40234375">id</text></g><g transform="translate(0.0,14.0)"><text fill="black" font-family="arial, sans-serif" font-size="12" font-weight="400" x="1.0" y="11.40234375">descriptio</text></g><g transform="translate(0.0,28.0)"><text fill="black" font-family="arial, sans-serif" font-size="12" font-weight="400" x="1.0" y="11.40234375">date_init</text></g><g transform="translate(0.0,42.0)"><text fill="black" font-family="arial, sans-serif" font-size="12" font-weight="400" x="1.0" y="11.40234375">date_end</text></g><g transform="translate(0.0,56.0)"><text fill="black" font-family="arial, sans-serif" font-size="12" font-weight="400" x="1.0" y="11.40234375">enabled</text></g></g><g transform="translate(71.0,3.0)"><g transform="translate(0.0,0.0)"><text fill="black" font-family="arial, sans-serif" font-size="12" font-weight="400" x="1.0" y="11.40234375">int</text></g><g transform="translate(0.0,14.0)"><text fill="black" font-family="arial, sans-serif" font-size="12" font-weight="400" x="1.0" y="11.40234375">varchar(100)</text></g><g transform="translate(0.0,28.0)"><text fill="black" font-family="arial, sans-serif" font-size="12" font-weight="400" x="1.0" y="11.40234375">date</text></g><g transform="translate(0.0,42.0)"><text fill="black" font-family="arial, sans-serif" font-size="12" font-weight="400" x="1.0" y="11.40234375">int</text></g><g transform="translate(0.0,56.0)"><text fill="black" font-family="arial, sans-serif" font-size="12" font-weight="400" x="1.0" y="11.40234375">tinyint(1)</text></g></g><g transform="translate(148.5,3.0)"><g transform="translate(0.0,0.0)"><text fill="black" font-family="arial, sans-serif" font-size="12" font-weight="400" x="1.0" y="11.40234375">PK</text></g><g transform="translate(0.0,14.0)"><text fill="black" font-family="arial, sans-serif" font-size="12" font-weight="400" x="1.0" y="11.40234375"/></g><g transform="translate(0.0,28.0)"><text fill="black" font-family="arial, sans-serif" font-size="12" font-weight="400" x="1.0" y="11.40234375">N</text></g><g transform="translate(0.0,42.0)"><text fill="black" font-family="arial, sans-serif" font-size="12" font-weight="400" x="1.0" y="11.40234375">N</text></g><g transform="translate(0.0,56.0)"><text fill="black" font-family="arial, sans-serif" font-size="12" font-weight="400" x="1.0" y="11.40234375">N</text></g></g></g><polyline fill="none" points="0.0,20.0 0.0,0.0 167.0,0.0 167.0,20.0 0.0,20.0 0.0,102.0 167.0,102.0 167.0,20.0" stroke="#000000" stroke-linejoin="miter"/></g><g class="table" transform="translate(861.0,191.0)"><g transform="translate(0.0,0.0)"><rect fill="#f0f0f0" height="20.0" width="167.0"/></g><g transform="translate(0.0,0.0)"><text fill="black" font-family="arial, sans-serif" font-size="12" font-weight="700" text-anchor="middle" x="84.5" y="14.1888671875">hotel</text></g><g transform="translate(0.0,20.0)"><rect fill="#ffffff" height="67.0" width="167.0"/><g transform="translate(4.0,3.0)"><g transform="translate(0.0,0.0)"><text fill="black" font-family="arial, sans-serif" font-size="12" font-weight="400" x="1.0" y="11.40234375">id</text></g><g transform="translate(0.0,14.0)"><text fill="black" font-family="arial, sans-serif" font-size="12" font-weight="400" x="1.0" y="11.40234375">descriptio</text></g><g transform="translate(0.0,28.0)"><text fill="black" font-family="arial, sans-serif" font-size="12" font-weight="400" x="1.0" y="11.40234375">enabled</text></g><g transform="translate(0.0,42.0)"><text fill="black" font-family="arial, sans-serif" font-size="12" font-weight="400" x="1.0" y="11.40234375">tariff_id</text></g></g><g transform="translate(71.0,3.0)"><g transform="translate(0.0,0.0)"><text fill="black" font-family="arial, sans-serif" font-size="12" font-weight="400" x="1.0" y="11.40234375">int</text></g><g transform="translate(0.0,14.0)"><text fill="black" font-family="arial, sans-serif" font-size="12" font-weight="400" x="1.0" y="11.40234375">varchar(100)</text></g><g transform="translate(0.0,28.0)"><text fill="black" font-family="arial, sans-serif" font-size="12" font-weight="400" x="1.0" y="11.40234375">tinyint(1)</text></g><g transform="translate(0.0,42.0)"><text fill="black" font-family="arial, sans-serif" font-size="12" font-weight="400" x="1.0" y="11.40234375">int</text></g></g><g transform="translate(148.5,3.0)"><g transform="translate(0.0,0.0)"><text fill="black" font-family="arial, sans-serif" font-size="12" font-weight="400" x="1.0" y="11.40234375">PK</text></g><g transform="translate(0.0,14.0)"><text fill="black" font-family="arial, sans-serif" font-size="12" font-weight="400" x="1.0" y="11.40234375"/></g><g transform="translate(0.0,28.0)"><text fill="black" font-family="arial, sans-serif" font-size="12" font-weight="400" x="1.0" y="11.40234375">N</text></g><g transform="translate(0.0,42.0)"><text fill="black" font-family="arial, sans-serif" font-size="12" font-weight="400" x="1.0" y="11.40234375">FK</text></g></g></g><polyline fill="none" points="0.0,20.0 0.0,0.0 167.0,0.0 167.0,20.0 0.0,20.0 0.0,87.0 167.0,87.0 167.0,20.0" stroke="#000000" stroke-linejoin="miter"/></g><g class="table" transform="translate(874.0,328.0)"><g transform="translate(0.0,0.0)"><rect fill="#f0f0f0" height="20.0" width="145.0"/></g><g transform="translate(0.0,0.0)"><text fill="black" font-family="arial, sans-serif" font-size="12" font-weight="700" text-anchor="middle" x="73.5" y="14.1888671875">room</text></g><g transform="translate(0.0,20.0)"><rect fill="#ffffff" height="88.0" width="145.0"/><g transform="translate(4.0,3.0)"><g transform="translate(0.0,0.0)"><text fill="black" font-family="arial, sans-serif" font-size="12" font-weight="400" x="1.0" y="11.40234375">id</text></g><g transform="translate(0.0,14.0)"><text fill="black" font-family="arial, sans-serif" font-size="12" font-weight="400" x="1.0" y="11.40234375">descriptio</text></g><g transform="translate(0.0,28.0)"><text fill="black" font-family="arial, sans-serif" font-size="12" font-weight="400" x="1.0" y="11.40234375">enabled</text></g><g transform="translate(0.0,42.0)"><text fill="black" font-family="arial, sans-serif" font-size="12" font-weight="400" x="1.0" y="11.40234375">hotel_id</text></g></g><g transform="translate(70.0,3.0)"><g transform="translate(0.0,0.0)"><text fill="black" font-family="arial, sans-serif" font-size="12" font-weight="400" x="1.0" y="11.40234375">int</text></g><g transform="translate(0.0,14.0)"><text fill="black" font-family="arial, sans-serif" font-size="12" font-weight="400" x="1.0" y="11.40234375">int</text></g><g transform="translate(0.0,28.0)"><text fill="black" font-family="arial, sans-serif" font-size="12" font-weight="400" x="1.0" y="11.40234375">tinyint(1)</text></g><g transform="translate(0.0,42.0)"><text fill="black" font-family="arial, sans-serif" font-size="12" font-weight="400" x="1.0" y="11.40234375">int</text></g></g><g transform="translate(126.5,3.0)"><g transform="translate(0.0,0.0)"><text fill="black" font-family="arial, sans-serif" font-size="12" font-weight="400" x="1.0" y="11.40234375">PK</text></g><g transform="translate(0.0,14.0)"><text fill="black" font-family="arial, sans-serif" font-size="12" font-weight="400" x="1.0" y="11.40234375"/></g><g transform="translate(0.0,28.0)"><text fill="black" font-family="arial, sans-serif" font-size="12" font-weight="400" x="1.0" y="11.40234375">N</text></g><g transform="translate(0.0,42.0)"><text fill="black" font-family="arial, sans-serif" font-size="12" font-weight="400" x="1.0" y="11.40234375">FK</text></g></g></g><polyline fill="none" points="0.0,20.0 0.0,0.0 145.0,0.0 145.0,20.0 0.0,20.0 0.0,108.0 145.0,108.0 145.0,20.0" stroke="#000000" stroke-linejoin="miter"/></g><g class="table" transform="translate(868.0,494.0)"><g transform="translate(0.0,0.0)"><rect fill="#f0f0f0" height="20.0" width="167.0"/></g><g transform="translate(0.0,0.0)"><text fill="black" font-family="arial, sans-serif" font-size="12" font-weight="700" text-anchor="middle" x="84.5" y="14.1888671875">room_values</text></g><g transform="translate(0.0,20.0)"><rect fill="#ffffff" height="110.0" width="167.0"/><g transform="translate(4.0,3.0)"><g transform="translate(0.0,0.0)"><text fill="black" font-family="arial, sans-serif" font-size="12" font-weight="400" x="1.0" y="11.40234375">id</text></g><g transform="translate(0.0,14.0)"><text fill="black" font-family="arial, sans-serif" font-size="12" font-weight="400" x="1.0" y="11.40234375">descriptio</text></g><g transform="translate(0.0,28.0)"><text fill="black" font-family="arial, sans-serif" font-size="12" font-weight="400" x="1.0" y="11.40234375">value</text></g><g transform="translate(0.0,42.0)"><text fill="black" font-family="arial, sans-serif" font-size="12" font-weight="400" x="1.0" y="11.40234375">breakfast</text></g><g transform="translate(0.0,56.0)"><text fill="black" font-family="arial, sans-serif" font-size="12" font-weight="400" x="1.0" y="11.40234375">lunch</text></g><g transform="translate(0.0,70.0)"><text fill="black" font-family="arial, sans-serif" font-size="12" font-weight="400" x="1.0" y="11.40234375">dinner</text></g><g transform="translate(0.0,84.0)"><text fill="black" font-family="arial, sans-serif" font-size="12" font-weight="400" x="1.0" y="11.40234375">room_id</text></g></g><g transform="translate(71.0,3.0)"><g transform="translate(0.0,0.0)"><text fill="black" font-family="arial, sans-serif" font-size="12" font-weight="400" x="1.0" y="11.40234375">int</text></g><g transform="translate(0.0,14.0)"><text fill="black" font-family="arial, sans-serif" font-size="12" font-weight="400" x="1.0" y="11.40234375">varchar(100)</text></g><g transform="translate(0.0,28.0)"><text fill="black" font-family="arial, sans-serif" font-size="12" font-weight="400" x="1.0" y="11.40234375">decimal(9,2)</text></g><g transform="translate(0.0,42.0)"><text fill="black" font-family="arial, sans-serif" font-size="12" font-weight="400" x="1.0" y="11.40234375">tinyint(1)</text></g><g transform="translate(0.0,56.0)"><text fill="black" font-family="arial, sans-serif" font-size="12" font-weight="400" x="1.0" y="11.40234375">tinyint(1)</text></g><g transform="translate(0.0,70.0)"><text fill="black" font-family="arial, sans-serif" font-size="12" font-weight="400" x="1.0" y="11.40234375">tinyint(1)</text></g><g transform="translate(0.0,84.0)"><text fill="black" font-family="arial, sans-serif" font-size="12" font-weight="400" x="1.0" y="11.40234375">int</text></g></g><g transform="translate(148.5,3.0)"><g transform="translate(0.0,0.0)"><text fill="black" font-family="arial, sans-serif" font-size="12" font-weight="400" x="1.0" y="11.40234375">PK</text></g><g transform="translate(0.0,14.0)"><text fill="black" font-family="arial, sans-serif" font-size="12" font-weight="400" x="1.0" y="11.40234375"/></g><g transform="translate(0.0,28.0)"><text fill="black" font-family="arial, sans-serif" font-size="12" font-weight="400" x="1.0" y="11.40234375"/></g><g transform="translate(0.0,42.0)"><text fill="black" font-family="arial, sans-serif" font-size="12" font-weight="400" x="1.0" y="11.40234375">N</text></g><g transform="translate(0.0,56.0)"><text fill="black" font-family="arial, sans-serif" font-size="12" font-weight="400" x="1.0" y="11.40234375">N</text></g><g transform="translate(0.0,70.0)"><text fill="black" font-family="arial, sans-serif" font-size="12" font-weight="400" x="1.0" y="11.40234375">N</text></g><g transform="translate(0.0,84.0)"><text fill="black" font-family="arial, sans-serif" font-size="12" font-weight="400" x="1.0" y="11.40234375">FK</text></g></g></g><polyline fill="none" points="0.0,20.0 0.0,0.0 167.0,0.0 167.0,20.0 0.0,20.0 0.0,130.0 167.0,130.0 167.0,20.0" stroke="#000000" stroke-linejoin="miter"/></g><g class="table" transform="translate(52.0,370.0)"><g transform="translate(0.0,0.0)"><rect fill="#f0f0f0" height="20.0" width="183.0"/></g><g transform="translate(0.0,0.0)"><text fill="black" font-family="arial, sans-serif" font-size="12" font-weight="700" text-anchor="middle" x="92.5" y="14.1888671875">menu</text></g><g transform="translate(0.0,20.0)"><rect fill="#ffffff" height="82.0" width="183.0"/><g transform="translate(4.0,3.0)"><g transform="translate(0.0,0.0)"><text fill="black" font-family="arial, sans-serif" font-size="12" font-weight="400" x="1.0" y="11.40234375">id</text></g><g transform="translate(0.0,14.0)"><text fill="black" font-family="arial, sans-serif" font-size="12" font-weight="400" x="1.0" y="11.40234375">description</text></g><g transform="translate(0.0,28.0)"><text fill="black" font-family="arial, sans-serif" font-size="12" font-weight="400" x="1.0" y="11.40234375">enabled</text></g><g transform="translate(0.0,42.0)"><text fill="black" font-family="arial, sans-serif" font-size="12" font-weight="400" x="1.0" y="11.40234375">data_create</text></g><g transform="translate(0.0,56.0)"><text fill="black" font-family="arial, sans-serif" font-size="12" font-weight="400" x="1.0" y="11.40234375">menu_id</text></g></g><g transform="translate(82.0,3.0)"><g transform="translate(0.0,0.0)"><text fill="black" font-family="arial, sans-serif" font-size="12" font-weight="400" x="1.0" y="11.40234375">int</text></g><g transform="translate(0.0,14.0)"><text fill="black" font-family="arial, sans-serif" font-size="12" font-weight="400" x="1.0" y="11.40234375">varchar(50)</text></g><g transform="translate(0.0,28.0)"><text fill="black" font-family="arial, sans-serif" font-size="12" font-weight="400" x="1.0" y="11.40234375">tinyint(1)</text></g><g transform="translate(0.0,42.0)"><text fill="black" font-family="arial, sans-serif" font-size="12" font-weight="400" x="1.0" y="11.40234375">timestamp</text></g><g transform="translate(0.0,56.0)"><text fill="black" font-family="arial, sans-serif" font-size="12" font-weight="400" x="1.0" y="11.40234375">int</text></g></g><g transform="translate(152.0,3.0)"><g transform="translate(0.0,0.0)"><text fill="black" font-family="arial, sans-serif" font-size="12" font-weight="400" x="1.0" y="11.40234375">PK</text></g><g transform="translate(0.0,14.0)"><text fill="black" font-family="arial, sans-serif" font-size="12" font-weight="400" x="1.0" y="11.40234375"/></g><g transform="translate(0.0,28.0)"><text fill="black" font-family="arial, sans-serif" font-size="12" font-weight="400" x="1.0" y="11.40234375">N</text></g><g transform="translate(0.0,42.0)"><text fill="black" font-family="arial, sans-serif" font-size="12" font-weight="400" x="1.0" y="11.40234375"/></g><g transform="translate(0.0,56.0)"><text fill="black" font-family="arial, sans-serif" font-size="12" font-weight="400" x="1.0" y="11.40234375">N FK</text></g></g></g><polyline fill="none" points="0.0,20.0 0.0,0.0 183.0,0.0 183.0,20.0 0.0,20.0 0.0,102.0 183.0,102.0 183.0,20.0" stroke="#000000" stroke-linejoin="miter"/></g><g class="table" transform="translate(587.0,30.0)"><g transform="translate(0.0,0.0)"><rect fill="#f0f0f0" height="20.0" width="167.0"/></g><g transform="translate(0.0,0.0)"><text fill="black" font-family="arial, sans-serif" font-size="12" font-weight="700" text-anchor="middle" x="84.5" y="14.1888671875">gallery</text></g><g transform="translate(0.0,20.0)"><rect fill="#ffffff" height="53.0" width="167.0"/><g transform="translate(4.0,3.0)"><g transform="translate(0.0,0.0)"><text fill="black" font-family="arial, sans-serif" font-size="12" font-weight="400" x="1.0" y="11.40234375">id</text></g><g transform="translate(0.0,14.0)"><text fill="black" font-family="arial, sans-serif" font-size="12" font-weight="400" x="1.0" y="11.40234375">descriptio</text></g><g transform="translate(0.0,28.0)"><text fill="black" font-family="arial, sans-serif" font-size="12" font-weight="400" x="1.0" y="11.40234375">enabled</text></g></g><g transform="translate(71.0,3.0)"><g transform="translate(0.0,0.0)"><text fill="black" font-family="arial, sans-serif" font-size="12" font-weight="400" x="1.0" y="11.40234375">int</text></g><g transform="translate(0.0,14.0)"><text fill="black" font-family="arial, sans-serif" font-size="12" font-weight="400" x="1.0" y="11.40234375">varchar(100)</text></g><g transform="translate(0.0,28.0)"><text fill="black" font-family="arial, sans-serif" font-size="12" font-weight="400" x="1.0" y="11.40234375">tinyint(1)</text></g></g><g transform="translate(148.5,3.0)"><g transform="translate(0.0,0.0)"><text fill="black" font-family="arial, sans-serif" font-size="12" font-weight="400" x="1.0" y="11.40234375">PK</text></g><g transform="translate(0.0,14.0)"><text fill="black" font-family="arial, sans-serif" font-size="12" font-weight="400" x="1.0" y="11.40234375"/></g><g transform="translate(0.0,28.0)"><text fill="black" font-family="arial, sans-serif" font-size="12" font-weight="400" x="1.0" y="11.40234375"/></g></g></g><polyline fill="none" points="0.0,20.0 0.0,0.0 167.0,0.0 167.0,20.0 0.0,20.0 0.0,73.0 167.0,73.0 167.0,20.0" stroke="#000000" stroke-linejoin="miter"/></g><g class="table" transform="translate(542.0,161.0)"><g transform="translate(0.0,0.0)"><rect fill="#f0f0f0" height="20.0" width="281.0"/></g><g transform="translate(0.0,0.0)"><text fill="black" font-family="arial, sans-serif" font-size="12" font-weight="700" text-anchor="middle" x="141.5" y="14.1888671875">image_video</text></g><g transform="translate(0.0,20.0)"><rect fill="#ffffff" height="154.0" width="281.0"/><g transform="translate(4.0,3.0)"><g transform="translate(0.0,0.0)"><text fill="black" font-family="arial, sans-serif" font-size="12" font-weight="400" x="1.0" y="11.40234375">id</text></g><g transform="translate(0.0,14.0)"><text fill="black" font-family="arial, sans-serif" font-size="12" font-weight="400" x="1.0" y="11.40234375">name</text></g><g transform="translate(0.0,28.0)"><text fill="black" font-family="arial, sans-serif" font-size="12" font-weight="400" x="1.0" y="11.40234375">description</text></g><g transform="translate(0.0,42.0)"><text fill="black" font-family="arial, sans-serif" font-size="12" font-weight="400" x="1.0" y="11.40234375">name_generate</text></g><g transform="translate(0.0,56.0)"><text fill="black" font-family="arial, sans-serif" font-size="12" font-weight="400" x="1.0" y="11.40234375">type</text></g><g transform="translate(0.0,70.0)"><text fill="black" font-family="arial, sans-serif" font-size="12" font-weight="400" x="1.0" y="11.40234375">enabled</text></g><g transform="translate(0.0,84.0)"><text fill="black" font-family="arial, sans-serif" font-size="12" font-weight="400" x="1.0" y="11.40234375">url</text></g><g transform="translate(0.0,98.0)"><text fill="black" font-family="arial, sans-serif" font-size="12" font-weight="400" x="1.0" y="11.40234375">gallery_id</text></g><g transform="translate(0.0,112.0)"><text fill="black" font-family="arial, sans-serif" font-size="12" font-weight="400" x="1.0" y="11.40234375">banner_id</text></g><g transform="translate(0.0,126.0)"><text fill="black" font-family="arial, sans-serif" font-size="12" font-weight="400" x="1.0" y="11.40234375">page_details_id</text></g></g><g transform="translate(120.0,3.0)"><g transform="translate(0.0,0.0)"><text fill="black" font-family="arial, sans-serif" font-size="12" font-weight="400" x="1.0" y="11.40234375">int</text></g><g transform="translate(0.0,14.0)"><text fill="black" font-family="arial, sans-serif" font-size="12" font-weight="400" x="1.0" y="11.40234375">varchar(255)</text></g><g transform="translate(0.0,28.0)"><text fill="black" font-family="arial, sans-serif" font-size="12" font-weight="400" x="1.0" y="11.40234375">varchar(255)</text></g><g transform="translate(0.0,42.0)"><text fill="black" font-family="arial, sans-serif" font-size="12" font-weight="400" x="1.0" y="11.40234375">varchar(255)</text></g><g transform="translate(0.0,56.0)"><text fill="black" font-family="arial, sans-serif" font-size="12" font-weight="400" x="1.0" y="11.40234375">enum('image', 'video')</text></g><g transform="translate(0.0,70.0)"><text fill="black" font-family="arial, sans-serif" font-size="12" font-weight="400" x="1.0" y="11.40234375">tinyint(1)</text></g><g transform="translate(0.0,84.0)"><text fill="black" font-family="arial, sans-serif" font-size="12" font-weight="400" x="1.0" y="11.40234375">varchar(255)</text></g><g transform="translate(0.0,98.0)"><text fill="black" font-family="arial, sans-serif" font-size="12" font-weight="400" x="1.0" y="11.40234375">int</text></g><g transform="translate(0.0,112.0)"><text fill="black" font-family="arial, sans-serif" font-size="12" font-weight="400" x="1.0" y="11.40234375">int</text></g><g transform="translate(0.0,126.0)"><text fill="black" font-family="arial, sans-serif" font-size="12" font-weight="400" x="1.0" y="11.40234375">int</text></g></g><g transform="translate(250.0,3.0)"><g transform="translate(0.0,0.0)"><text fill="black" font-family="arial, sans-serif" font-size="12" font-weight="400" x="1.0" y="11.40234375">PK</text></g><g transform="translate(0.0,14.0)"><text fill="black" font-family="arial, sans-serif" font-size="12" font-weight="400" x="1.0" y="11.40234375"/></g><g transform="translate(0.0,28.0)"><text fill="black" font-family="arial, sans-serif" font-size="12" font-weight="400" x="1.0" y="11.40234375">N</text></g><g transform="translate(0.0,42.0)"><text fill="black" font-family="arial, sans-serif" font-size="12" font-weight="400" x="1.0" y="11.40234375">N</text></g><g transform="translate(0.0,56.0)"><text fill="black" font-family="arial, sans-serif" font-size="12" font-weight="400" x="1.0" y="11.40234375"/></g><g transform="translate(0.0,70.0)"><text fill="black" font-family="arial, sans-serif" font-size="12" font-weight="400" x="1.0" y="11.40234375"/></g><g transform="translate(0.0,84.0)"><text fill="black" font-family="arial, sans-serif" font-size="12" font-weight="400" x="1.0" y="11.40234375">N</text></g><g transform="translate(0.0,98.0)"><text fill="black" font-family="arial, sans-serif" font-size="12" font-weight="400" x="1.0" y="11.40234375">N FK</text></g><g transform="translate(0.0,112.0)"><text fill="black" font-family="arial, sans-serif" font-size="12" font-weight="400" x="1.0" y="11.40234375">N FK</text></g><g transform="translate(0.0,126.0)"><text fill="black" font-family="arial, sans-serif" font-size="12" font-weight="400" x="1.0" y="11.40234375">N FK</text></g></g></g><polyline fill="none" points="0.0,20.0 0.0,0.0 281.0,0.0 281.0,20.0 0.0,20.0 0.0,174.0 281.0,174.0 281.0,20.0" stroke="#000000" stroke-linejoin="miter"/></g><g class="note" transform="translate(49.0,29.0)"><polygon fill="#fff9c3" points="420.0,0.0 0.0,0.0 0.0,29.0 435.0,29.0 435.0,15.0 420.0,15.0 420.0,0.0" stroke="#000000" stroke-linejoin="bevel"/><polygon fill="#fff9c3" points="420.0,0.0 435.0,15.0 420.0,15.0 420.0,0.0" stroke="#000000" stroke-linejoin="bevel"/><g transform="translate(5.0,5.0)"><g transform="translate(0.0,0.0)"><text fill="black" font-family="arial, sans-serif" font-size="12" font-weight="400" x="1.0" y="11.40234375">This is an example database model.</text></g></g></g><g transform="translate(879.0,648.0)"><svg height="40" width="166"><svg version="1.1" viewBox="0 0 651.76797 157.024">
  <g id="layer1" transform="translate(-23.401729,-158.13592)">
    <path d="m 219.86573,196.93059 c 2.95733,-0.44267 5.95333,-0.66667 8.98666,-0.66667 2.58933,0 5.288,0.224 8.1,0.66667 l 5.104,62.68799 27.40533,-62.68799 c 2.66267,-0.44267 5.472,-0.66667 8.432,-0.66667 2.88534,0 5.73067,0.224 8.54267,0.66667 l -37.83467,79.77333 c -3.328,0.44533 -6.584,0.66666 -9.764,0.66666 -1.48,0 -2.92133,-0.0547 -4.32666,-0.16666 -1.40534,-0.112 -2.95867,-0.276 -4.66,-0.5 l -9.98533,-79.77333" id="path14" style="fill:#21201f;fill-opacity:1;fill-rule:nonzero;stroke:none"/>
    <path d="m 295.96706,243.64125 c 2.81066,-0.44266 5.104,-1.016 6.87866,-1.71866 1.77467,-0.70267 3.18,-1.47867 4.216,-2.33067 1.03467,-0.84933 1.73734,-1.72133 2.108,-2.60667 0.36934,-0.888 0.556,-1.776 0.556,-2.664 0,-1.404 -0.464,-2.552 -1.388,-3.44 -0.92533,-0.888 -2.164,-1.33066 -3.71733,-1.33066 -1.924,0 -3.68,0.42666 -5.26933,1.276 -1.592,0.852 -2.97867,1.97866 -4.16134,3.38266 -1.184,1.40667 -2.20133,3.016 -3.05066,4.828 -0.852,1.812 -1.49734,3.64267 -1.94134,5.492 z m -6.324,11.31734 c 0.444,3.55066 1.62533,6.19599 3.55066,7.93333 1.92267,1.73866 4.732,2.60666 8.432,2.60666 2.95734,0 5.564,-0.31333 7.82134,-0.94266 2.256,-0.628 4.64133,-1.45867 7.15733,-2.49734 1.18133,1.48134 1.97733,3.27334 2.38533,5.38267 0.40534,2.10667 0.60934,4.34667 0.60934,6.71067 -1.25867,0.59333 -2.71734,1.13066 -4.38267,1.60933 -1.664,0.48133 -3.38267,0.888 -5.15867,1.22133 -1.77466,0.33334 -3.55066,0.59067 -5.32533,0.776 -1.776,0.18534 -3.36667,0.27867 -4.772,0.27867 -4.512,0 -8.376,-0.55467 -11.59467,-1.664 -3.21733,-1.10933 -5.88,-2.68267 -7.988,-4.716 -2.108,-2.03333 -3.66133,-4.51067 -4.66,-7.43467 -0.99866,-2.92 -1.49733,-6.15599 -1.49733,-9.70933 0,-4.50933 0.776,-8.94666 2.32933,-13.312 1.55334,-4.364 3.75334,-8.26533 6.60134,-11.70533 2.848,-3.44 6.32533,-6.21333 10.43066,-8.32267 4.10534,-2.10666 8.70934,-3.16133 13.81334,-3.16133 2.44133,0 4.716,0.296 6.824,0.888 2.108,0.59333 3.93866,1.49733 5.492,2.71867 1.552,1.21866 2.77333,2.71866 3.66,4.492 0.888,1.776 1.332,3.84666 1.332,6.21333 0,3.328 -0.776,6.21333 -2.32934,8.65333 -1.55333,2.44267 -3.62533,4.51334 -6.21333,6.21334 -2.59067,1.704 -5.53067,3.092 -8.82133,4.16133 -3.292,1.07333 -6.712,1.87067 -10.26267,2.38533 l -7.43333,1.22134" id="path16" style="fill:#21201f;fill-opacity:1;fill-rule:nonzero;stroke:none"/>
    <path d="m 333.57506,243.97459 c 0.812,-4.66134 1.42266,-8.784 1.83066,-12.372 0.40534,-3.58667 0.60934,-6.38 0.60934,-8.37467 0,-0.816 0,-1.5 0,-2.05467 0,-0.55466 -0.0373,-1.164 -0.11067,-1.83066 2.44133,-0.44267 4.88267,-0.664 7.32267,-0.664 1.10933,0 2.21866,0.0547 3.328,0.16666 1.11066,0.10934 2.29333,0.276 3.55066,0.49734 0.148,0.59333 0.296,1.296 0.444,2.10933 0.148,0.81467 0.22134,2.03333 0.22134,3.66133 0,0.664 -0.0173,1.33067 -0.0547,1.99734 -0.0373,0.664 -0.12933,1.47866 -0.27733,2.44 0.73866,-1.33067 1.664,-2.644 2.77333,-3.93734 1.10933,-1.29466 2.348,-2.45866 3.71733,-3.49733 1.368,-1.03467 2.884,-1.86533 4.548,-2.49467 1.66667,-0.628 3.49733,-0.94266 5.49333,-0.94266 1.55334,0 2.88534,0.184 3.99467,0.55466 0.072,0.296 0.11067,0.59067 0.11067,0.888 0,0.29334 0,0.62667 0,0.99734 0,2.072 -0.26134,4.216 -0.776,6.43466 -0.51867,2.21867 -1.22134,4.07067 -2.108,5.54667 -0.444,-0.0733 -0.92667,-0.14533 -1.44267,-0.22133 -0.51867,-0.0733 -1.184,-0.10934 -1.99733,-0.10934 -3.03467,0 -5.53067,0.51867 -7.49067,1.552 -1.95866,1.036 -3.568,2.49734 -4.82533,4.38267 -1.25867,1.88533 -2.25733,4.16133 -2.996,6.82267 -0.74133,2.664 -1.40667,5.62266 -1.99733,8.87733 l -4.10531,22.3 c -2.884,0.44533 -5.584,0.66666 -8.09866,0.66666 -2.59067,0 -5.14267,-0.22133 -7.656,-0.66666 l 5.992,-32.72933" id="path18" style="fill:#21201f;fill-opacity:1;fill-rule:nonzero;stroke:none"/>
    <path d="m 384.50705,231.32659 -8.54266,0 c 0,-1.99734 0.14666,-3.956 0.444,-5.88 0.29333,-1.92534 0.848,-3.95867 1.664,-6.104 l 8.54266,0 0.66534,-3.32934 c 0.36933,-1.84533 0.59066,-3.60666 0.66533,-5.27066 0.0733,-1.664 0.112,-3.04934 0.112,-4.15867 1.92133,-1.25733 4.32667,-2.14533 7.21067,-2.664 2.88533,-0.516 5.548,-0.776 7.98933,-0.776 0.36933,1.10933 0.55467,2.516 0.55467,4.216 0,1.18533 -0.0933,2.46133 -0.27734,3.828 -0.18533,1.37067 -0.42666,2.868 -0.72133,4.492 l -0.66667,3.66267 13.76,0 c 0,2.21866 -0.18666,4.25466 -0.55466,6.104 -0.372,1.848 -0.888,3.80933 -1.55334,5.88 l -13.76,0 -3.88266,21.856 c -0.148,1.03733 -0.27734,1.99733 -0.388,2.88666 -0.11067,0.888 -0.16667,1.736 -0.16667,2.552 0,1.924 0.444,3.43733 1.332,4.54933 0.88667,1.10934 2.55067,1.664 4.992,1.664 1.25733,0 2.36667,-0.0947 3.32933,-0.27866 0.96,-0.18267 1.848,-0.388 2.66267,-0.60934 0.96,2.14534 1.44267,4.956 1.44267,8.432 0,0.59067 0,1.18267 0,1.77334 0,0.59333 -0.0387,1.18533 -0.11067,1.776 -3.18133,0.96133 -6.99067,1.44266 -11.42933,1.44266 -6.21334,0 -10.81734,-1.14533 -13.81334,-3.44 -2.99466,-2.292 -4.49333,-6.13866 -4.49333,-11.53866 0,-1.10934 0.0733,-2.256 0.22267,-3.44 0.14666,-1.18267 0.332,-2.47733 0.55466,-3.88267 l 4.216,-23.74266" id="path20" style="fill:#21201f;fill-opacity:1;fill-rule:nonzero;stroke:none"/>
    <path d="m 455.95772,231.21459 c -0.66533,-0.14534 -1.31333,-0.24 -1.94133,-0.276 -0.63067,-0.036 -1.24,-0.0573 -1.83067,-0.0573 -3.55067,0 -6.56533,0.888 -9.04267,2.664 -2.48,1.776 -4.532,3.99466 -6.15866,6.656 -1.62667,2.664 -2.812,5.532 -3.55067,8.59866 -0.73867,3.07067 -1.10933,5.86534 -1.10933,8.37867 0,5.47333 1.812,8.21066 5.436,8.21066 3.55066,0 6.84133,-2.164 9.876,-6.492 3.032,-4.32666 5.25066,-10.40933 6.65733,-18.25066 z m 11.428,20.63733 c -0.81467,4.66 -1.40667,8.784 -1.776,12.37066 -0.37067,3.588 -0.55467,6.38 -0.55467,8.37734 0,0.81466 0,1.49733 0,2.052 0,0.55466 0.036,1.16666 0.11067,1.83066 -2.44,0.44534 -4.84533,0.66667 -7.21067,0.66667 -2.072,0 -4.36666,-0.22133 -6.87866,-0.66667 -0.15067,-0.59066 -0.29734,-1.292 -0.444,-2.10666 -0.15067,-0.81467 -0.22267,-2.03334 -0.22267,-3.66134 0,-0.66666 0,-1.36933 0,-2.10933 0,-0.73733 0.072,-1.58933 0.22267,-2.552 -2.14667,3.404 -4.88134,6.252 -8.21067,8.544 -3.32933,2.292 -7.21333,3.44 -11.65067,3.44 -4.88133,0 -8.54266,-1.55467 -10.984,-4.66133 -2.44,-3.10667 -3.66133,-7.21067 -3.66133,-12.31467 0,-5.548 0.832,-10.90933 2.496,-16.08933 1.66533,-5.17733 4.14133,-9.76267 7.43467,-13.75733 3.29066,-3.99467 7.37733,-7.19334 12.25866,-9.596 4.884,-2.404 10.57734,-3.60667 17.088,-3.60667 3.25334,0 6.28667,0.22133 9.09734,0.66667 2.81066,0.44266 5.58533,1.072 8.32133,1.88533 l -5.436,31.288" id="path22" style="fill:#21201f;fill-opacity:1;fill-rule:nonzero;stroke:none"/>
    <path d="m 492.00837,264.27992 c 0.59067,0.22133 1.348,0.388 2.27334,0.49733 0.924,0.112 1.86666,0.16667 2.82933,0.16667 3.25467,0 6.04667,-0.75867 8.37734,-2.27334 2.32934,-1.516 4.25334,-3.44 5.76934,-5.77066 1.51466,-2.32933 2.624,-4.89867 3.32933,-7.712 0.70133,-2.80933 1.05467,-5.54667 1.05467,-8.21067 0,-2.588 -0.53867,-4.82533 -1.60934,-6.71066 -1.07333,-1.888 -2.904,-2.83067 -5.49333,-2.83067 -3.40267,0 -6.32401,1.44267 -8.76534,4.328 -2.44,2.88533 -4.216,7.656 -5.32534,14.312 z m -7.32266,-47.156 c 1.33067,-7.76667 1.996,-13.64667 1.996,-17.64133 0,-0.812 -0.0187,-1.49734 -0.0547,-2.052 -0.0387,-0.55467 -0.0947,-1.16667 -0.16666,-1.83067 1.256,-0.22133 2.69866,-0.388 4.32666,-0.5 1.62667,-0.112 3.032,-0.16667 4.216,-0.16667 2.144,0 4.512,0.22134 7.10133,0.66667 0.36934,1.10933 0.55467,2.516 0.55467,4.216 0,3.25467 -0.444,7.21067 -1.332,11.872 l -2.77333,15.42267 c 0.888,-1.10934 1.868,-2.20134 2.94,-3.27334 1.072,-1.07333 2.31201,-2.052 3.71734,-2.94 1.404,-0.888 3.032,-1.592 4.88133,-2.10933 1.848,-0.516 3.996,-0.776 6.436,-0.776 5.176,0 9.15334,1.776 11.92667,5.32533 2.77467,3.552 4.16133,8.692 4.16133,15.42134 0,4.588 -0.66533,9.21066 -1.99733,13.86933 -1.332,4.66 -3.56933,8.876 -6.712,12.64933 -3.14533,3.77333 -7.30667,6.844 -12.48267,9.208 -5.17733,2.36667 -11.57734,3.552 -19.19467,3.552 -3.47733,0 -6.65733,-0.29733 -9.54132,-0.888 -2.88534,-0.59067 -5.62267,-1.404 -8.21067,-2.44267 l 10.20799,-57.58266" id="path24" style="fill:#21201f;fill-opacity:1;fill-rule:nonzero;stroke:none"/>
    <path d="m 558.79638,243.64125 c 2.80934,-0.44266 5.10267,-1.016 6.87867,-1.71866 1.77467,-0.70267 3.18,-1.47867 4.216,-2.33067 1.03467,-0.84933 1.73733,-1.72133 2.108,-2.60667 0.368,-0.888 0.55467,-1.776 0.55467,-2.664 0,-1.404 -0.464,-2.552 -1.38667,-3.44 -0.92533,-0.888 -2.164,-1.33066 -3.71733,-1.33066 -1.924,0 -3.68134,0.42666 -5.26934,1.276 -1.592,0.852 -2.98,1.97866 -4.16133,3.38266 -1.184,1.40667 -2.20267,3.016 -3.05067,4.828 -0.852,1.812 -1.49866,3.64267 -1.94133,5.492 z m -6.324,11.31734 c 0.44267,3.55066 1.624,6.19599 3.54934,7.93333 1.92266,1.73866 4.73333,2.60666 8.432,2.60666 2.95866,0 5.56533,-0.31333 7.82266,-0.94266 2.256,-0.628 4.64134,-1.45867 7.156,-2.49734 1.18267,1.48134 1.97867,3.27334 2.38534,5.38267 0.40533,2.10667 0.61066,4.34667 0.61066,6.71067 -1.25866,0.59333 -2.71866,1.13066 -4.38266,1.60933 -1.664,0.48133 -3.384,0.888 -5.16,1.22133 -1.77467,0.33334 -3.54934,0.59067 -5.32534,0.776 -1.77466,0.18534 -3.36533,0.27867 -4.77066,0.27867 -4.512,0 -8.376,-0.55467 -11.59334,-1.664 -3.21866,-1.10933 -5.88266,-2.68267 -7.99066,-4.716 -2.108,-2.03333 -3.66134,-4.51067 -4.65867,-7.43467 -0.99867,-2.92 -1.49867,-6.15599 -1.49867,-9.70933 0,-4.50933 0.77734,-8.94666 2.33067,-13.312 1.55333,-4.364 3.75333,-8.26533 6.60133,-11.70533 2.84667,-3.44 6.32534,-6.21333 10.43067,-8.32267 4.104,-2.10666 8.70933,-3.16133 13.812,-3.16133 2.44133,0 4.716,0.296 6.824,0.888 2.108,0.59333 3.93867,1.49733 5.492,2.71867 1.55333,1.21866 2.77333,2.71866 3.66133,4.492 0.888,1.776 1.332,3.84666 1.332,6.21333 0,3.328 -0.77733,6.21333 -2.33066,8.65333 -1.55334,2.44267 -3.624,4.51334 -6.21334,6.21334 -2.58933,1.704 -5.52933,3.092 -8.82,4.16133 -3.29333,1.07333 -6.71333,1.87067 -10.26266,2.38533 l -7.43334,1.22134" id="path26" style="fill:#21201f;fill-opacity:1;fill-rule:nonzero;stroke:none"/>
    <path d="m 599.28705,217.12392 c 0.812,-3.92 1.38667,-7.33867 1.72,-10.264 0.332,-2.92133 0.49867,-5.38 0.49867,-7.37733 0,-0.812 -0.02,-1.49734 -0.056,-2.052 -0.0373,-0.55467 -0.092,-1.16667 -0.16534,-1.83067 1.256,-0.22133 2.69867,-0.388 4.32667,-0.5 1.62667,-0.112 3.032,-0.16667 4.216,-0.16667 2.14533,0 4.51067,0.22134 7.1,0.66667 0.37067,1.10933 0.55467,2.516 0.55467,4.216 0,1.552 -0.148,3.328 -0.44267,5.32533 -0.296,1.99734 -0.66667,4.18 -1.11067,6.54667 l -8.54266,44.60267 c -0.22134,1.25733 -0.332,2.29333 -0.332,3.10666 0,1.184 0.16533,2.10667 0.49866,2.77333 0.33334,0.66667 0.75867,1.184 1.276,1.55467 0.51734,0.36933 1.10934,0.60933 1.77467,0.71867 0.66667,0.112 1.332,0.16666 1.99733,0.16666 0.29467,0 0.85067,-0.0547 1.664,-0.16666 0.81467,-0.10934 1.55334,-0.276 2.22,-0.49734 0.36934,1.25734 0.68267,2.624 0.94267,4.104 0.25867,1.48134 0.388,2.99467 0.388,4.54934 0,0.59333 -0.0187,1.148 -0.056,1.664 -0.0373,0.51866 -0.092,1.07333 -0.16533,1.664 -1.10934,0.44533 -2.552,0.79466 -4.328,1.05466 -1.77467,0.25734 -3.73467,0.388 -5.88,0.388 -5.03067,0 -8.98667,-1.23733 -11.87067,-3.716 -2.88533,-2.47866 -4.328,-6.38 -4.328,-11.70533 0,-1.03733 0.072,-2.12533 0.22267,-3.27333 0.14666,-1.14667 0.332,-2.34667 0.55466,-3.60667 l 7.32267,-37.94533" id="path28" style="fill:#21201f;fill-opacity:1;fill-rule:nonzero;stroke:none"/>
    <path d="m 644.32438,266.05325 c 2.812,0 5.17733,-0.888 7.10133,-2.66133 1.92267,-1.776 3.496,-3.97734 4.716,-6.60133 1.22134,-2.62534 2.08934,-5.39867 2.608,-8.324 0.516,-2.91867 0.776,-5.564 0.776,-7.932 0,-6.804 -2.77333,-10.208 -8.32266,-10.208 -2.81067,0 -5.14134,0.92666 -6.98934,2.77333 -1.848,1.852 -3.36533,4.10667 -4.548,6.768 -1.18533,2.664 -2.01733,5.47733 -2.49733,8.432 -0.48133,2.96133 -0.72133,5.58667 -0.72133,7.87867 0,6.58533 2.62533,9.87466 7.87733,9.87466 z m -1.44133,11.984 c -7.62,0 -13.22267,-1.99733 -16.80934,-5.992 -3.58933,-3.99467 -5.38133,-9.46933 -5.38133,-16.42133 0,-4.43867 0.66667,-8.89333 1.99734,-13.37067 1.33199,-4.47333 3.32933,-8.50533 5.99199,-12.09333 2.66267,-3.58667 6.008,-6.508 10.04,-8.76267 4.032,-2.25866 8.74667,-3.38533 14.14667,-3.38533 7.692,0 13.33067,2.036 16.92,6.10133 3.58667,4.06934 5.38133,9.58 5.38133,16.53334 0,4.58666 -0.648,9.096 -1.94133,13.53333 -1.296,4.44133 -3.27333,8.43333 -5.936,11.98533 -2.66267,3.54933 -6.03067,6.416 -10.096,8.59867 -4.06933,2.18 -8.84,3.27333 -14.31333,3.27333" id="path30" style="fill:#21201f;fill-opacity:1;fill-rule:nonzero;stroke:none"/>
    <path d="m 48.632389,158.31059 85.817341,124.14799 -20.74801,32.70134 -90.299991,-138.83866 14.60666,-17.65867 10.624,-0.352" id="path40" style="fill:#df2c9f;fill-opacity:1;fill-rule:nonzero;stroke:none"/>
    <path d="m 48.504389,158.31059 85.945341,124.14799 21.412,-33.57199 -62.744011,-90.576 -44.61333,0" id="path42" style="fill:#5c2591;fill-opacity:1;fill-rule:nonzero;stroke:none"/>
    <path d="m 92.997719,158.31059 62.864011,90.576 22.57733,-34.62 -39.00933,-56.13067 -46.432011,0.17467" id="path44" style="fill:#57bded;fill-opacity:1;fill-rule:nonzero;stroke:none"/>
    <path d="m 178.27773,214.26659 24.89733,-38.12 -14.60667,-17.836 -49.3,0 39.00934,55.956" id="path46" style="fill:#8bd035;fill-opacity:1;fill-rule:nonzero;stroke:none"/>
  </g>
</svg></svg></g></g></svg>